# xmcd
#
# Track frame offsets:
#	150
#	18755
#	41109
#	60271
#	81923
#	105945
#	128923
#	146968
#	163501
#	180764
#	200526
#	219924
#	237184
#	254466
#	271781
#	292386
#	318918
#	332828
#
# Disc length: 4692 seconds
#
# Revision: 2
# Processed by: cddbd v1.4PL0 Copyright (c) Steve Scherf et al.
# Submitted via: audiograbber 1.81.03
#
DISCID=fc125212
DTITLE=Gf - Rap Hits
DYEAR=2003
DGENRE=Rap
TTITLE0=X-Zibit Feat.nate Dogg - Multiplay
TTITLE1=Ja Rule - Rock Star
TTITLE2=Wu-Tang Clan - Ya'll Been Warned
TTITLE3=Notorious B.i.g. Feat.eminem - Dead Wrong
TTITLE4=Eminem - Lose Yourself
TTITLE5=Outkast - B.o.b.
TTITLE6=Black Rob - Whoa
TTITLE7=Ll Cool J - Niggy Nuts
TTITLE8=Rusta Rhymes - Call The Ambulance
TTITLE9=Rakim - R.a.k.i.m.
TTITLE10=Eve - Satisfaction
TTITLE11=Nelly Feat.toya - Stick Out Ya Wrist
TTITLE12=Nas - U Wanna Be Me
TTITLE13=Ali Feat.st.lunatics - Breathe In,breathe Out
TTITLE14=Dmx Feat.mashonda - You Could Be Blind
TTITLE15=D12 - Rap Game
TTITLE16=Brooklyn - The Weekend
TTITLE17=50 Cent - Places To Go
EXTD=
EXTT0=
EXTT1=
EXTT2=
EXTT3=
EXTT4=
EXTT5=
EXTT6=
EXTT7=
EXTT8=
EXTT9=
EXTT10=
EXTT11=
EXTT12=
EXTT13=
EXTT14=
EXTT15=
EXTT16=
EXTT17=
PLAYORDER=
